<svg xmlns="http://www.w3.org/2000/svg" xmlns:xlink="http://www.w3.org/1999/xlink"><defs><style>
    .sprite-symbol-usage {display: none;}
    .sprite-symbol-usage:target {display: inline;}
  </style><symbol viewBox="0 0 85 20" id="login"><path d="M12.015 10.376l-3.552 5.448h-3.24l2.496-4.152H.59V9.08h7.104L5.223 4.976h3.24l3.552 5.4zM34.306 8.24c1.024.304 1.808.8 2.352 1.488.544.688.816 1.536.816 2.544 0 1.488-.568 2.648-1.704 3.48-1.12.832-2.728 1.248-4.824 1.248h-8.28V.2h7.824c1.952 0 3.472.376 4.56 1.128 1.088.752 1.632 1.824 1.632 3.216 0 .832-.208 1.568-.624 2.208-.416.624-1 1.12-1.752 1.488zM26.53 7.16h3.624c.848 0 1.488-.168 1.92-.504.432-.352.648-.864.648-1.536 0-.656-.224-1.16-.672-1.512-.432-.352-1.064-.528-1.896-.528H26.53v4.08zm4.272 6.96c1.824 0 2.736-.72 2.736-2.16 0-1.392-.912-2.088-2.736-2.088H26.53v4.248h4.272zM48.372 17l-2.831-3.96L42.613 17h-4.08l4.968-6.504-4.8-6.408h4.2l2.736 3.768 2.808-3.768h3.984l-4.8 6.312L52.62 17h-4.248zm11.742.192c-1.36 0-2.584-.28-3.672-.84a6.439 6.439 0 0 1-2.52-2.376c-.608-1.008-.912-2.152-.912-3.432 0-1.28.304-2.424.912-3.432a6.27 6.27 0 0 1 2.52-2.352c1.088-.576 2.312-.864 3.672-.864 1.36 0 2.576.288 3.648.864a6.27 6.27 0 0 1 2.52 2.352c.608 1.008.912 2.152.912 3.432 0 1.28-.304 2.424-.912 3.432a6.439 6.439 0 0 1-2.52 2.376c-1.072.56-2.288.84-3.648.84zm0-3.072c.96 0 1.744-.32 2.352-.96.624-.656.936-1.528.936-2.616s-.312-1.952-.936-2.592c-.608-.656-1.392-.984-2.352-.984s-1.752.328-2.376.984c-.624.64-.936 1.504-.936 2.592s.312 1.96.936 2.616c.624.64 1.416.96 2.376.96zm23.94-.192v5.856h-3.48V17H71.5v2.784h-3.48v-5.856h.528c.8-.016 1.352-.488 1.656-1.416.304-.928.496-2.248.576-3.96l.168-4.464h11.256v9.84h1.848zm-9.889-5.112c-.048 1.312-.152 2.384-.312 3.216-.144.832-.424 1.464-.84 1.896h5.448V7.16h-4.224l-.072 1.656z" /></symbol></defs><use id="login-usage" xlink:href="#login" class="sprite-symbol-usage" /></svg>